<svg width="64" height="64" viewBox="0 0 64 64" fill="none" xmlns="http://www.w3.org/2000/svg">
<path d="M39.26 5.67805L12.3899 32.5481C12.1947 32.7434 12.1947 33.0599 12.3899 33.2552L24.0572 44.9225C24.2525 45.1177 24.569 45.1177 24.7643 44.9225L51.6344 18.0524C51.8296 17.8572 51.8296 17.5406 51.6344 17.3453L39.9671 5.67805C39.7718 5.48278 39.4552 5.48278 39.26 5.67805Z" stroke="white" stroke-width="3"/>
<path d="M11.6724 38.4987L23.6932 50.5195C24.0838 50.9101 24.7169 50.9101 25.1075 50.5195L53.0382 22.5888" stroke="white" stroke-width="3"/>
<path d="M11.3076 44.0949L23.682 56.4693C24.0725 56.8598 24.7056 56.8598 25.0962 56.4693L53.3804 28.185" stroke="white" stroke-width="3"/>
</svg>
