<svg width="64" height="64" viewBox="0 0 64 64" fill="none" xmlns="http://www.w3.org/2000/svg">
<g clip-path="url(#clip0)">
<path d="M39.1746 11.951L11.951 39.1746C11.7557 39.3699 11.7557 39.6865 11.951 39.8817L23.6183 51.549C23.8135 51.7443 24.1301 51.7443 24.3254 51.549L51.549 24.3254C51.7442 24.1301 51.7442 23.8135 51.549 23.6183L39.8817 11.951C39.6865 11.7558 39.3699 11.7558 39.1746 11.951Z" stroke="white" stroke-width="3"/>
<path d="M85.8198 -12.1141L54.7071 18.9986C54.3166 19.3891 53.6834 19.3891 53.2929 18.9986L44.7198 10.4256C44.3293 10.035 44.3293 9.40186 44.7198 9.01134L75.8325 -22.1014" stroke="white" stroke-width="3"/>
<path d="M-9.50001 88.5L21.6094 57.3906C22.0012 56.9988 21.9998 56.3631 21.6062 55.9731L7.70707 42.2006C7.31603 41.8132 6.68536 41.8146 6.2961 42.2039L-24.8198 73.3198" stroke="white" stroke-width="3"/>
</g>
<defs>
<clipPath id="clip0">
<rect width="64" height="64" fill="white"/>
</clipPath>
</defs>
</svg>
